<?xml version="1.0" encoding="UTF-8"?><svg id="a" xmlns="http://www.w3.org/2000/svg" xmlns:xlink="http://www.w3.org/1999/xlink" viewBox="0 0 1349.5 1349.6"><defs><style>.c{stroke:#2b2b2b;stroke-linejoin:round;stroke-width:2px;}.c,.d{fill:none;}.e{clip-path:url(#b);}</style><clipPath id="b"><rect class="d" width="1349.5" height="1349.6"/></clipPath></defs><rect class="d" x="1307.3" y="1307.4" width="84.4" height="84.4"/><g class="e"><path class="c" d="M632.4,379.6h759.3M969.8-42.2V717.1M632.4,42.2h759.3m-84.4-84.4V717.1m-674.9-253.1h759.3M885.4-42.2V717.1M632.4,126.5h759.3m-168.8-168.7V717.1m-590.5-168.7h759.3M801.1-42.2V717.1m-168.7-506.2h759.3m-253.2-253.1V717.1m-506.1-84.4h759.3M716.7-42.2V717.1m-84.3-421.8h759.3M1054.2-42.2V717.1M-42.3,379.7H717M295.1-42.2V717.1M-42.3,42.2H717m-84.4-84.4V717.1M-42.3,464H717M210.7-42.2V717.1M-42.3,126.5H717M548.2-42.2V717.1M-42.3,548.4H717M126.4-42.2V717.1M-42.3,210.9H717M463.8-42.2V717.1M-42.3,632.7H717M42-42.2V717.1M-42.3,295.3H717M379.5-42.2V717.1M-42.3,1054.5H717m-421.9-422v759.3M-42.3,716.9H717m-84.4-84.4v759.3M-42.3,1138.7H717M210.7,632.5v759.3M-42.3,801.2H717m-168.8-168.7v759.3M-42.3,1223.1H717M126.4,632.5v759.3M-42.3,885.6H717m-253.2-253.1v759.3m-506.1-84.4H717M42,632.5v759.3M-42.3,970H717m-337.5-337.5v759.3m252.9-337.3h759.3m-421.9-422v759.3m-337.4-674.9h759.3m-84.4-84.4v759.3m-674.9-253.1h759.3m-506.3-506.2v759.3m-253-590.6h759.3m-168.8-168.7v759.3m-590.5-168.7h759.3M801.1,632.5v759.3m-168.7-506.2h759.3m-253.2-253.1v759.3m-506.1-84.4h759.3M716.7,632.5v759.3m-84.3-421.8h759.3m-337.5-337.5v759.3"/></g></svg>